<svg width="1053" height="266" viewBox="0 0 1053 266" fill="none" xmlns="http://www.w3.org/2000/svg">
<path d="M-100.152 418.051C76.5601 360.931 212.24 425.129 374.524 488.764C462.149 523.108 550.775 550.962 644.142 522.569C782.564 480.479 872.779 365.83 987.212 286.088C1181.76 150.535 1245.63 440.185 1412.73 474.247C1483.85 488.738 1527.76 439.185 1588.65 414.998C1674.66 380.834 1753.62 438.98 1822.03 486.763" stroke="url(#paint0_linear_115_1711)" stroke-miterlimit="10"/>
<path d="M-100.152 383.271C-20.9841 353.082 56.2875 346.131 138.172 370.498C213.778 392.992 278.697 438.415 350.048 470.553C434.316 508.513 520.891 541.805 613.105 511.566C759.575 463.526 847.739 333.076 967.273 246.538C1160.82 106.393 1217.13 405.123 1376.03 445.418C1456.48 465.808 1503.1 406.688 1571.5 379.654C1663.95 343.105 1750.32 411.33 1822.03 463.013" stroke="url(#paint1_linear_115_1711)" stroke-miterlimit="10"/>
<path d="M-100.152 349.697C-28.9035 317.405 42.089 307.351 117.336 332.589C191.455 357.443 251.658 409.766 319.934 445.982C399.358 488.123 481.089 530.417 572.483 503.435C725.719 458.242 821.905 311.737 940.824 216.939C1143.6 55.2753 1177.25 380.373 1343.38 417.794C1428.62 437.005 1481.7 368.446 1554.9 341.72C1653.36 305.786 1747.81 384.297 1822 439.236" stroke="url(#paint2_linear_115_1711)" stroke-miterlimit="10"/>
<path d="M-100.152 317.815C64.5144 229.327 163.417 334 297.534 418.589C373.704 466.629 455.717 522.21 549.058 491.277C700.218 441.186 799.659 290.576 914.246 190.418C988.212 125.784 1059.02 110.779 1122.38 192.547C1177.33 263.44 1212.62 365.548 1310.39 386.092C1395.53 403.969 1455.66 333.795 1528.7 305.196C1636.19 263.081 1742.6 355.16 1822.03 415.511" stroke="url(#paint3_linear_115_1711)" stroke-miterlimit="10"/>
<path d="M-100.152 288.165C59.3374 187.853 158.727 292.013 284.514 386.554C351.611 436.979 427.576 506.821 518.226 483.147C573.405 468.732 622.331 427.771 664.465 391.607C745.453 322.124 812.678 240.151 889.566 166.745C963.275 96.3645 1035.93 68.6639 1099.13 161.512C1146.24 230.712 1182.38 337.616 1277.08 352.723C1367.11 367.087 1433 289.781 1511.97 263.055C1625.86 224.48 1740.68 328.152 1822.03 391.709" stroke="url(#paint4_linear_115_1711)" stroke-miterlimit="10"/>
<path d="M-100.152 261.286C-37.9762 216.529 30.6328 188.443 106.392 215.708C173.848 239.997 226.285 296.424 278.133 343.438C336.567 396.429 410.379 490.508 500.08 472.015C550.57 461.602 594.985 422.924 632.711 389.991C715.98 317.277 788.971 233.046 863.834 152.022C933.904 76.1533 1011.56 21.5728 1076.91 127.169C1120.92 198.241 1155.08 310.659 1254.88 314.609C1343.46 318.123 1410.01 247.333 1489.85 221.222C1612.31 181.185 1736.53 298.861 1822.05 367.984" stroke="url(#paint5_linear_115_1711)" stroke-miterlimit="10"/>
<path d="M-100.152 236.612C-36.336 186.853 34.7591 153.818 115.363 182.493C183.382 206.68 239.715 261.824 289.999 311.403C342.282 362.983 412.455 464.295 498.056 447.008C545.957 437.338 588.091 398.583 623.408 367.138C704.165 295.193 776.285 213.169 849.251 133.581C916.066 60.7128 994.542 -5.71736 1060.82 99.391C1104.18 168.155 1137.12 277.906 1235.05 279.265C1322.85 280.471 1396.07 216.683 1478.06 194.83C1605.67 160.794 1730.38 272.366 1822.03 343.644" stroke="url(#paint6_linear_115_1711)" stroke-miterlimit="10"/>
<path d="M-100.152 209.116C-29.7493 153.689 45.3695 123.886 131.432 162.359C202.604 194.189 264.934 254.412 320.011 307.735C369.423 355.596 430.651 436.364 508.564 411.202C556.106 395.839 597.445 354.801 632.916 321.816C704.011 255.72 770.083 184.134 837.154 114.011C901.073 47.1446 978.626 -17.9004 1047.34 75.3326C1096.21 141.66 1127.33 247.743 1224.9 252.591C1311.8 256.9 1395.84 199.524 1479.62 184.134C1606.33 160.845 1724.18 248.256 1822.05 315.61" stroke="url(#paint7_linear_115_1711)" stroke-miterlimit="10"/>
<path d="M-100.152 178.569C-24.4441 120.757 52.6994 95.3386 141.145 140.993C208.909 175.952 271.444 232.251 327.187 283.626C379.137 331.512 442.928 414.024 521.429 377.5C562.41 358.443 596.138 322.15 628.328 291.449C696.04 226.814 760.087 158.281 826.21 92.0556C894.614 23.5479 972.117 -29.5705 1043.08 61.508C1091.93 124.219 1127.12 222.941 1219.74 227.045C1304.96 230.841 1389.61 189.982 1472.78 176.389C1601.16 155.408 1715.13 220.915 1822.05 284.036" stroke="url(#paint8_linear_115_1711)" stroke-miterlimit="10"/>
<path d="M-100.152 145.533C-12.8341 82.4886 70.4604 68.2279 163.443 126.886C230.258 169.027 292.024 226.121 351.816 277.598C401.742 320.585 457.895 388.067 527.76 348.979C565.178 328.049 596.318 290.73 626.124 260.542C689.582 196.241 751.374 130.375 816.676 67.9202C884.337 3.2085 961.788 -43.4978 1033.81 38.2703C1087.58 99.3142 1124.81 196.677 1217.21 205.5C1298.63 213.271 1387.36 181.416 1467.45 169.002C1595.44 149.175 1708.06 194.445 1822 249.718" stroke="url(#paint9_linear_115_1711)" stroke-miterlimit="10"/>
<path d="M-100.152 110.625C-5.55544 46.9394 81.4296 40.1169 176.232 106.752C247.762 157.024 312.04 220.555 380.06 275.649C426.833 313.506 478.578 365.419 537.038 321.919C575.686 293.167 607.236 249.846 639.323 214.554C693.58 154.92 749.195 96.0823 808.885 41.861C882.031 -24.5948 961.353 -55.9888 1035.01 24.1121C1088.93 82.745 1130.25 174.26 1218.85 184.186C1302.71 193.573 1393.38 171.541 1476.45 160.127C1598.59 143.353 1707.31 170.669 1822.03 213.169" stroke="url(#paint10_linear_115_1711)" stroke-miterlimit="10"/>
<path d="M-100.152 74.3836C7.69479 6.90187 99.37 14.0835 198.375 93.1841C273.494 153.202 337.515 223.043 415.812 279.676C469.531 318.508 508.256 340.438 557.285 286.319C640.605 194.343 708.086 89.5163 805.707 10.2106C877.366 -47.9863 956.201 -69.6851 1027.6 -1.94692C1087.93 55.2753 1128.53 143.122 1215.62 163.744C1296.02 182.749 1396.92 164 1477.75 152.971C1597.06 136.684 1704.72 146.251 1822.05 175.183" stroke="url(#paint11_linear_115_1711)" stroke-miterlimit="10"/>
<path d="M-100.152 37.4238C20.6118 -33.0845 118.951 -10.1802 220.775 80.0776C293.715 144.738 354.379 219.607 437.161 272.725C497.928 311.737 529.913 318.636 571.483 256.515C637.35 158.101 703.652 57.5067 799.607 -15.0791C877.187 -73.789 955.791 -86.9724 1031.6 -19.2855C1094.73 37.0904 1139.65 127.784 1228.92 147.739C1308.09 165.436 1400.48 157.024 1480.29 146.149C1596.16 130.349 1705.01 123.219 1822.05 136.274" stroke="url(#paint12_linear_115_1711)" stroke-miterlimit="10"/>
<path d="M-100.152 0.335817C31.4786 -72.3782 134.456 -36.547 238.792 62.9443C312.629 133.35 373.498 219.35 464.405 269.262C531.886 306.325 555.567 287.063 587.758 223.531C638.964 122.501 703.729 20.3931 798.582 -45.4214C878.878 -101.156 960.097 -102.875 1035.52 -38.8297C1101.31 17.0588 1149.24 105.393 1237.38 130.17C1426.42 183.314 1632.14 103.88 1822.05 97.2879" stroke="url(#paint13_linear_115_1711)" stroke-miterlimit="10"/>
<path d="M-100.152 -36.3162C-34.6701 -71.2241 26.8909 -91.9482 100.164 -66.5303C160.777 -45.4984 210.421 -1.357 254.887 43.6052C328.238 117.832 390.952 217.709 488.676 261.824C561.975 294.911 579.326 250.334 604.058 188.136C644.372 86.6693 705.241 -17.2849 800.351 -76.6872C1007.64 -206.188 1082.45 55.8396 1247.37 112.651C1439.98 179.005 1633.71 95.2873 1822.05 58.7892" stroke="url(#paint14_linear_115_1711)" stroke-miterlimit="10"/>
<path d="M-100.152 -71.9422C-31.8509 -108.107 31.0941 -128.267 105.7 -100.797C168.287 -77.7645 218.878 -30.6991 264.216 16.9818C335.516 91.9529 409.251 221.735 515.612 251.59C590.064 272.494 601.802 202.781 620.665 146.662C653.676 48.4271 710.572 -59.8873 805.758 -111.852C1003.36 -219.73 1102.88 22.8297 1252.06 91.3886C1447.79 181.339 1637.32 89.1059 1822.03 21.4447" stroke="url(#paint15_linear_115_1711)" stroke-miterlimit="10"/>
<path d="M-100.152 -105.927C-31.1845 -143.476 30.9403 -163.867 106.854 -137.27C169.799 -115.212 221.236 -65.9918 265.985 -18.0287C338.592 59.8151 416.427 207.68 529.323 229.738C606.057 244.742 616.821 168.027 633.582 110.42C662.364 11.5955 714.186 -97.7962 813.652 -143.759C1011.53 -235.196 1118.25 -2.33171 1264.21 72.9729C1340.2 112.164 1438.59 132.247 1523.24 118.602C1630.55 101.315 1728.69 37.6803 1822.05 -13.9506" stroke="url(#paint16_linear_115_1711)" stroke-miterlimit="10"/>
<path d="M-100.152 -137.731C-26.6994 -180.231 44.2931 -204.725 125.614 -167.997C186.637 -140.424 235.05 -89.7424 278.799 -40.5482C344.358 33.1662 426.986 188.469 537.268 200.114C620.281 208.885 630.763 118.166 648.55 56.9168C676.05 -37.7525 725.565 -139.244 825.236 -175.768C1021.63 -247.764 1135.19 -31.8789 1276.9 52.4797C1348.51 95.1078 1442.1 124.296 1525.86 113.857C1638.06 99.8528 1735.17 18.5977 1822 -46.9347" stroke="url(#paint17_linear_115_1711)" stroke-miterlimit="10"/>
<path d="M-100.152 -166.74C-30.8001 -210.958 37.4758 -241.737 119.412 -208.624C185.074 -182.078 237.357 -125.728 282.464 -73.0708C346.947 2.20816 428.037 156.767 542.599 159.486C624.279 161.41 639.4 69.3821 658.673 7.92782C688.48 -87.0236 735.612 -179.128 840.153 -205.982C1040.34 -257.434 1151.49 -60.0412 1294.74 34.6538C1364.86 81.0266 1458.38 119.269 1543.8 106.932C1655.52 90.7731 1745.27 -2.15213 1822.03 -76.6872" stroke="url(#paint18_linear_115_1711)" stroke-miterlimit="10"/>
<path d="M-100.152 -192.363C-36.4897 -238.556 29.6333 -277.26 110.596 -250.124C173.694 -228.989 223.389 -177.23 265.856 -128.139C335.414 -47.7555 405.381 95.2359 525.12 104.367C616.155 111.292 639.81 22.7527 666.003 -47.2938C701.73 -142.861 751.527 -223.783 860.938 -238.582C1054.9 -264.82 1166.67 -97.9244 1301.42 7.13268C1368.98 59.7895 1460.45 110.215 1548.85 101.597C1666.1 90.1575 1752.39 -18.952 1822.03 -102.592" stroke="url(#paint19_linear_115_1711)" stroke-miterlimit="10"/>
<path d="M-100.152 -212.574C-36.7973 -256.818 28.5312 -293.239 107.879 -267.385C169.671 -247.251 218.853 -197.775 260.807 -150.171C328.391 -73.5324 399.922 73.5885 516.227 77.6153C606.159 80.7188 636.94 1.00265 669.181 -69.0696C710.521 -158.866 766.469 -241.07 872.573 -255.407C1059.74 -280.697 1176.66 -124.779 1309.5 -25.0564C1374.67 23.8556 1466.6 73.6141 1550.31 71.9726C1667.33 69.6642 1754.01 -41.7281 1822.03 -123.034" stroke="url(#paint20_linear_115_1711)" stroke-miterlimit="10"/>
<path d="M-100.152 -226.399C-37.7968 -269.104 26.5834 -304.525 104.368 -280.979C164.468 -262.794 212.932 -216.473 254.221 -171.126C320.728 -98.0526 391.951 47.5294 504.489 48.2219C592.73 48.7605 630.302 -21.5169 668.822 -89.9733C715.877 -173.588 777.643 -253.817 879.98 -267.873C1060.38 -292.624 1182.25 -152.787 1315.16 -59.7078C1379.7 -14.5148 1470.63 35.9105 1550.49 43.0408C1666.92 53.4285 1755.01 -59.0666 1822 -137.449" stroke="url(#paint21_linear_115_1711)" stroke-miterlimit="10"/>
<path d="M-100.152 -234.965C-40.3341 -275.875 23.6104 -311.245 98.3192 -292.265C162.007 -276.106 212.599 -227.912 255.964 -181.257C321.882 -110.338 387.979 21.3933 498.107 16.4944C581.427 12.801 623.895 -50.4999 667.413 -112.801C720.849 -189.336 785.358 -261.101 883.21 -275.003C1060.9 -300.267 1185.38 -179.385 1323.62 -93.1537C1387.49 -53.2957 1468.53 -6.02509 1542.11 13.0319C1661.38 43.9129 1752.21 -67.9411 1822.03 -146.939" stroke="url(#paint22_linear_115_1711)" stroke-miterlimit="10"/>
<path d="M-100.152 -239.377C-41.9744 -279.671 20.6118 -315.81 94.0904 -300.857C155.267 -288.392 204.987 -245.507 247.609 -202.443C314.449 -134.935 376.676 -13.6941 483.37 -18.4391C564.307 -22.0299 612.977 -75.3279 662.492 -132.755C721.823 -201.545 790.304 -266.898 884.388 -280.594C1054.57 -305.371 1184.97 -208.727 1324.82 -131.832C1394.23 -93.6667 1467.22 -47.0117 1540.08 -16.1307C1657.39 33.6021 1749.6 -74.0198 1822 -152.53" stroke="url(#paint23_linear_115_1711)" stroke-miterlimit="10"/>
<defs>
<linearGradient id="paint0_linear_115_1711" x1="860.938" y1="250.197" x2="860.938" y2="534.293" gradientUnits="userSpaceOnUse">
<stop stop-color="#333333"/>
<stop offset="1" stop-color="#333333" stop-opacity="0"/>
</linearGradient>
<linearGradient id="paint1_linear_115_1711" x1="860.938" y1="209.397" x2="860.938" y2="523.325" gradientUnits="userSpaceOnUse">
<stop stop-color="#333333"/>
<stop offset="1" stop-color="#333333" stop-opacity="0"/>
</linearGradient>
<linearGradient id="paint2_linear_115_1711" x1="860.925" y1="172.147" x2="860.925" y2="511.924" gradientUnits="userSpaceOnUse">
<stop stop-color="#333333"/>
<stop offset="1" stop-color="#333333" stop-opacity="0"/>
</linearGradient>
<linearGradient id="paint3_linear_115_1711" x1="860.938" y1="136.476" x2="860.938" y2="500.208" gradientUnits="userSpaceOnUse">
<stop stop-color="#333333"/>
<stop offset="1" stop-color="#333333" stop-opacity="0"/>
</linearGradient>
<linearGradient id="paint4_linear_115_1711" x1="860.938" y1="102.304" x2="860.938" y2="487.902" gradientUnits="userSpaceOnUse">
<stop stop-color="#333333"/>
<stop offset="1" stop-color="#333333" stop-opacity="0"/>
</linearGradient>
<linearGradient id="paint5_linear_115_1711" x1="860.951" y1="68.4487" x2="860.951" y2="474.387" gradientUnits="userSpaceOnUse">
<stop stop-color="#333333"/>
<stop offset="1" stop-color="#333333" stop-opacity="0"/>
</linearGradient>
<linearGradient id="paint6_linear_115_1711" x1="860.938" y1="44.8047" x2="860.938" y2="448.968" gradientUnits="userSpaceOnUse">
<stop stop-color="#333333"/>
<stop offset="1" stop-color="#333333" stop-opacity="0"/>
</linearGradient>
<linearGradient id="paint7_linear_115_1711" x1="860.951" y1="28.8783" x2="860.951" y2="415.95" gradientUnits="userSpaceOnUse">
<stop stop-color="#333333"/>
<stop offset="1" stop-color="#333333" stop-opacity="0"/>
</linearGradient>
<linearGradient id="paint8_linear_115_1711" x1="860.951" y1="13.0766" x2="860.951" y2="386.564" gradientUnits="userSpaceOnUse">
<stop stop-color="#333333"/>
<stop offset="1" stop-color="#333333" stop-opacity="0"/>
</linearGradient>
<linearGradient id="paint9_linear_115_1711" x1="860.925" y1="-5.35193" x2="860.925" y2="360.719" gradientUnits="userSpaceOnUse">
<stop stop-color="#333333"/>
<stop offset="1" stop-color="#333333" stop-opacity="0"/>
</linearGradient>
<linearGradient id="paint10_linear_115_1711" x1="860.938" y1="-23.4747" x2="860.938" y2="338.442" gradientUnits="userSpaceOnUse">
<stop stop-color="#333333"/>
<stop offset="1" stop-color="#333333" stop-opacity="0"/>
</linearGradient>
<linearGradient id="paint11_linear_115_1711" x1="860.951" y1="-43.9317" x2="860.951" y2="318.652" gradientUnits="userSpaceOnUse">
<stop stop-color="#333333"/>
<stop offset="1" stop-color="#333333" stop-opacity="0"/>
</linearGradient>
<linearGradient id="paint12_linear_115_1711" x1="860.951" y1="-64.804" x2="860.951" y2="302.626" gradientUnits="userSpaceOnUse">
<stop stop-color="#333333"/>
<stop offset="1" stop-color="#333333" stop-opacity="0"/>
</linearGradient>
<linearGradient id="paint13_linear_115_1711" x1="860.951" y1="-87.0615" x2="860.951" y2="288.007" gradientUnits="userSpaceOnUse">
<stop stop-color="#333333"/>
<stop offset="1" stop-color="#333333" stop-opacity="0"/>
</linearGradient>
<linearGradient id="paint14_linear_115_1711" x1="860.951" y1="-112.207" x2="860.951" y2="273.063" gradientUnits="userSpaceOnUse">
<stop stop-color="#333333"/>
<stop offset="1" stop-color="#333333" stop-opacity="0"/>
</linearGradient>
<linearGradient id="paint15_linear_115_1711" x1="860.938" y1="-139.107" x2="860.938" y2="255.385" gradientUnits="userSpaceOnUse">
<stop stop-color="#333333"/>
<stop offset="1" stop-color="#333333" stop-opacity="0"/>
</linearGradient>
<linearGradient id="paint16_linear_115_1711" x1="860.951" y1="-164.716" x2="860.951" y2="231.644" gradientUnits="userSpaceOnUse">
<stop stop-color="#333333"/>
<stop offset="1" stop-color="#333333" stop-opacity="0"/>
</linearGradient>
<linearGradient id="paint17_linear_115_1711" x1="860.925" y1="-190.23" x2="860.925" y2="200.705" gradientUnits="userSpaceOnUse">
<stop stop-color="#333333"/>
<stop offset="1" stop-color="#333333" stop-opacity="0"/>
</linearGradient>
<linearGradient id="paint18_linear_115_1711" x1="860.938" y1="-222.544" x2="860.938" y2="159.516" gradientUnits="userSpaceOnUse">
<stop stop-color="#333333"/>
<stop offset="1" stop-color="#333333" stop-opacity="0"/>
</linearGradient>
<linearGradient id="paint19_linear_115_1711" x1="860.938" y1="-259.109" x2="860.938" y2="104.749" gradientUnits="userSpaceOnUse">
<stop stop-color="#333333"/>
<stop offset="1" stop-color="#333333" stop-opacity="0"/>
</linearGradient>
<linearGradient id="paint20_linear_115_1711" x1="860.938" y1="-276.004" x2="860.938" y2="77.7032" gradientUnits="userSpaceOnUse">
<stop stop-color="#333333"/>
<stop offset="1" stop-color="#333333" stop-opacity="0"/>
</linearGradient>
<linearGradient id="paint21_linear_115_1711" x1="860.925" y1="-288.508" x2="860.925" y2="48.225" gradientUnits="userSpaceOnUse">
<stop stop-color="#333333"/>
<stop offset="1" stop-color="#333333" stop-opacity="0"/>
</linearGradient>
<linearGradient id="paint22_linear_115_1711" x1="860.938" y1="-297.532" x2="860.938" y2="18.2907" gradientUnits="userSpaceOnUse">
<stop stop-color="#333333"/>
<stop offset="1" stop-color="#333333" stop-opacity="0"/>
</linearGradient>
<linearGradient id="paint23_linear_115_1711" x1="860.925" y1="-304.303" x2="860.925" y2="-3.47778" gradientUnits="userSpaceOnUse">
<stop stop-color="#333333"/>
<stop offset="1" stop-color="#333333" stop-opacity="0"/>
</linearGradient>
</defs>
</svg>
