<svg width="22" height="22" viewBox="0 0 22 22" fill="none" xmlns="http://www.w3.org/2000/svg">
<path d="M1.83729 3.76615C1.61265 4.03031 1.38735 4.29382 1.16798 4.55139C0.737154 4.11661 0.36166 3.73848 0 3.37419C0.916996 2.45587 1.85244 1.51977 2.77602 0.595529C3.70026 1.52175 4.63505 2.45785 5.55072 3.3755C5.19302 3.73321 4.81489 4.11068 4.40382 4.52175C4.16601 4.25627 3.91041 3.97102 3.59025 3.61463V7.40449C5.31555 5.67656 7.08234 3.90844 8.8386 2.14955C8.37549 2.14955 7.85112 2.11727 7.33333 2.15943C6.88472 2.19566 6.57115 2.0481 6.27866 1.7174C5.92358 1.31621 5.51976 0.957848 5.08235 0.527677C5.24769 0.51516 5.33794 0.502644 5.42885 0.502644C9.82148 0.501985 14.2141 0.500009 18.6067 0.502644C20.0086 0.503303 21.0079 1.48025 21.0099 2.87353C21.0171 7.28921 21.0125 11.7042 21.0125 16.1199C21.0125 16.1812 21.0059 16.2431 20.9209 16.363C20.5231 15.9466 20.143 15.5112 19.72 15.1219C19.4453 14.8689 19.3347 14.6054 19.357 14.2339C19.3887 13.7141 19.365 13.191 19.365 12.6746C17.6008 14.4407 15.8544 16.1884 14.112 17.9328H17.9091C17.554 17.643 17.2615 17.4045 16.9743 17.17C17.4453 16.7167 17.8287 16.3478 18.2016 15.9882C19.0837 16.8801 20.0152 17.8215 20.9401 18.7563C20.0441 19.6456 19.1047 20.5784 18.1752 21.5007C17.8261 21.1449 17.4545 20.7668 17.0586 20.3636C17.2813 20.1673 17.5349 19.9434 17.7885 19.7194C17.7727 19.6805 17.7569 19.6416 17.7404 19.6034H17.3775C13.0507 19.6034 8.72398 19.6048 4.39723 19.6028C3.21278 19.6028 2.35903 19.0283 2.03294 17.9835C1.94335 17.6963 1.91765 17.3801 1.917 17.0764C1.90975 12.7708 1.91238 8.4651 1.91238 4.15943C1.91238 4.04349 1.91238 3.92689 1.91238 3.81094C1.88669 3.79579 1.861 3.7813 1.83531 3.76615H1.83729ZM3.56258 16.6831C8.40975 11.8353 13.249 6.99474 18.0935 2.14955C17.4032 2.14955 16.6937 2.14362 15.9842 2.15679C15.8933 2.15877 15.7879 2.24177 15.7154 2.31424C11.7167 6.30897 7.72003 10.3063 3.72596 14.3063C3.65415 14.3788 3.57115 14.4842 3.56917 14.5751C3.55599 15.2839 3.56192 15.9928 3.56192 16.6825L3.56258 16.6831ZM19.365 3.45785C14.5296 8.29184 9.69499 13.1258 4.86693 17.9526C5.52569 17.9526 6.22464 17.9585 6.92358 17.9453C7.01449 17.9434 7.11858 17.8571 7.19104 17.7839C11.1963 13.7826 15.1996 9.77867 19.1996 5.77274C19.2721 5.70027 19.3557 5.59487 19.357 5.50396C19.3702 4.80567 19.3643 4.10673 19.3643 3.45785H19.365ZM19.365 8.08762C16.0758 11.3742 12.7833 14.664 9.49144 17.9526C10.1588 17.9526 10.857 17.9585 11.556 17.9453C11.6462 17.9434 11.749 17.8531 11.8221 17.78C14.2846 15.3221 16.7444 12.8617 19.2016 10.3986C19.2734 10.3261 19.3557 10.22 19.3577 10.1285C19.3709 9.42952 19.365 8.73058 19.365 8.08697V8.08762ZM3.56258 12.0231C6.861 8.72596 10.1462 5.44138 13.4387 2.14955C12.7793 2.14955 12.1028 2.14362 11.4262 2.15614C11.334 2.15811 11.2266 2.23519 11.1548 2.30633C8.67589 4.77998 6.20026 7.25627 3.72727 9.73519C3.65547 9.80765 3.5718 9.91239 3.56983 10.004C3.55665 10.6818 3.56258 11.3597 3.56258 12.0231Z" fill="#999999"/>
</svg>
