<svg width="30" height="30" viewBox="0 0 30 30" fill="none" xmlns="http://www.w3.org/2000/svg">
<g id="Icon">
<path id="Vector (Stroke)" fill-rule="evenodd" clip-rule="evenodd" d="M4.5 15C4.5 14.3787 5.00368 13.875 5.625 13.875L21.5819 13.875L15.3453 7.93593C14.8974 7.50529 14.8834 6.79312 15.3141 6.34525C15.7447 5.89738 16.4569 5.88342 16.9047 6.31406L25.1547 14.1891C25.3753 14.4012 25.5 14.694 25.5 15C25.5 15.306 25.3753 15.5988 25.1547 15.8109L16.9047 23.6859C16.4569 24.1166 15.7447 24.1026 15.3141 23.6547C14.8834 23.2069 14.8974 22.4947 15.3453 22.0641L21.5819 16.125L5.625 16.125C5.00368 16.125 4.5 15.6213 4.5 15Z" fill="white"/>
</g>
</svg>
