<svg width="30" height="30" viewBox="0 0 30 30" fill="none" xmlns="http://www.w3.org/2000/svg">
<g id="Icon">
<path id="Vector (Stroke)" fill-rule="evenodd" clip-rule="evenodd" d="M25.5 15C25.5 15.6213 24.9963 16.125 24.375 16.125L8.41812 16.125L14.6547 22.0641C15.1026 22.4947 15.1166 23.2069 14.6859 23.6548C14.2553 24.1026 13.5431 24.1166 13.0953 23.6859L4.84525 15.8109C4.62466 15.5988 4.5 15.306 4.5 15C4.5 14.694 4.62466 14.4012 4.84525 14.1891L13.0953 6.31406C13.5431 5.88342 14.2553 5.89739 14.6859 6.34525C15.1166 6.79312 15.1026 7.5053 14.6547 7.93594L8.41812 13.875L24.375 13.875C24.9963 13.875 25.5 14.3787 25.5 15Z" fill="#808080"/>
</g>
</svg>
