<svg width="24" height="25" viewBox="0 0 24 25" fill="none" xmlns="http://www.w3.org/2000/svg">
<g id="Icon">
<path id="Subtract" fill-rule="evenodd" clip-rule="evenodd" d="M4.8001 20.3V4.70002H4.5001C4.00304 4.70002 3.6001 4.29708 3.6001 3.80002C3.6001 3.30297 4.00304 2.90002 4.5001 2.90002H19.5001C19.9972 2.90002 20.4001 3.30297 20.4001 3.80002C20.4001 4.29708 19.9972 4.70002 19.5001 4.70002H19.2001V20.3H19.5001C19.9972 20.3 20.4001 20.703 20.4001 21.2C20.4001 21.6971 19.9972 22.1 19.5001 22.1H15.3001C14.803 22.1 14.4001 21.6971 14.4001 21.2V18.2C14.4001 17.703 13.9972 17.3 13.5001 17.3H10.5001C10.003 17.3 9.6001 17.703 9.6001 18.2V21.2C9.6001 21.6971 9.19715 22.1 8.7001 22.1H4.5001C4.00304 22.1 3.6001 21.6971 3.6001 21.2C3.6001 20.703 4.00304 20.3 4.5001 20.3H4.8001ZM8.4001 7.10002C8.4001 6.76865 8.66873 6.50002 9.0001 6.50002H10.2001C10.5315 6.50002 10.8001 6.76865 10.8001 7.10002V8.30002C10.8001 8.6314 10.5315 8.90002 10.2001 8.90002H9.0001C8.66873 8.90002 8.4001 8.6314 8.4001 8.30002V7.10002ZM9.0001 11.3C8.66873 11.3 8.4001 11.5687 8.4001 11.9V13.1C8.4001 13.4314 8.66873 13.7 9.0001 13.7H10.2001C10.5315 13.7 10.8001 13.4314 10.8001 13.1V11.9C10.8001 11.5687 10.5315 11.3 10.2001 11.3H9.0001ZM13.2001 7.10002C13.2001 6.76865 13.4687 6.50002 13.8001 6.50002H15.0001C15.3315 6.50002 15.6001 6.76865 15.6001 7.10002V8.30002C15.6001 8.6314 15.3315 8.90002 15.0001 8.90002H13.8001C13.4687 8.90002 13.2001 8.6314 13.2001 8.30002V7.10002ZM13.8001 11.3C13.4687 11.3 13.2001 11.5687 13.2001 11.9V13.1C13.2001 13.4314 13.4687 13.7 13.8001 13.7H15.0001C15.3315 13.7 15.6001 13.4314 15.6001 13.1V11.9C15.6001 11.5687 15.3315 11.3 15.0001 11.3H13.8001Z" fill="white"/>
</g>
</svg>
