<svg width="34" height="34" viewBox="0 0 34 34" fill="none" xmlns="http://www.w3.org/2000/svg">
<path d="M23.915 6.15603C20.9808 7.32985 17.8383 8.09371 14.5576 8.37677C13.612 8.45836 12.6547 8.50003 11.6875 8.50003H10.625C6.51738 8.50003 3.1875 11.8299 3.1875 15.9375C3.1875 19.6203 5.86422 22.6779 9.37829 23.271C9.85184 25.2104 10.5089 27.0779 11.33 28.8538C11.9874 30.2758 13.7017 30.7239 14.9887 29.9809L15.9185 29.444C17.1653 28.7242 17.5699 27.1877 17.0123 25.9475C16.6796 25.2075 16.3826 24.448 16.1237 23.6711C18.84 24.0367 21.451 24.7333 23.915 25.719C24.9431 22.6458 25.5 19.3567 25.5 15.9375C25.5 12.5183 24.9431 9.22927 23.915 6.15603Z" fill="#A685FA"/>
<path d="M25.8692 5.29935C27.0075 8.63659 27.625 12.2149 27.625 15.9375C27.625 19.6601 27.0074 23.2384 25.8692 26.5757C25.791 26.8048 25.7107 27.033 25.6277 27.2598C25.426 27.8108 25.7092 28.4211 26.2602 28.6228C26.8112 28.8245 27.4215 28.5413 27.6232 27.9903C27.8215 27.4484 28.0069 26.9002 28.1789 26.3462C28.9208 23.9566 29.4139 21.458 29.6281 18.881C30.3605 18.1182 30.8125 17.0803 30.8125 15.9375C30.8125 14.7948 30.3605 13.7569 29.6281 12.9941C29.4139 10.417 28.9208 7.91843 28.1789 5.52888C28.0069 4.97484 27.8215 4.42669 27.6232 3.8848C27.4215 3.33376 26.8112 3.05057 26.2602 3.25227C25.7092 3.45398 25.426 4.06421 25.6277 4.61526C25.7107 4.84209 25.7911 5.07021 25.8692 5.29935Z" fill="#A685FA"/>
</svg>
