<svg width="34" height="35" viewBox="0 0 34 35" fill="none" xmlns="http://www.w3.org/2000/svg">
<path d="M17 1.5625C10.5452 1.5625 5.3125 6.79517 5.3125 13.25C5.3125 17.5719 7.65894 21.3446 11.1423 23.3656C12.1134 23.9291 12.7215 24.7936 12.749 25.6636C12.7642 26.1435 13.0993 26.5536 13.5666 26.664C14.0644 26.7817 14.5716 26.8743 15.0869 26.9405C15.5454 26.9994 15.9378 26.6322 15.9378 26.17V19.5668C15.4854 19.5168 15.0422 19.4352 14.6104 19.324C14.0421 19.1778 13.7 18.5985 13.8463 18.0302C13.9926 17.4619 14.5718 17.1198 15.1401 17.2661C15.7334 17.4188 16.3565 17.5003 17.0003 17.5003C17.644 17.5003 18.2671 17.4188 18.8604 17.2661C19.4287 17.1198 20.008 17.4619 20.1542 18.0302C20.3005 18.5985 19.9584 19.1778 19.3901 19.324C18.9583 19.4352 18.5151 19.5168 18.0628 19.5668V26.1699C18.0628 26.6321 18.4552 26.9994 18.9136 26.9404C19.4287 26.8742 19.9358 26.7817 20.4334 26.664C20.9007 26.5536 21.2358 26.1435 21.251 25.6636C21.2785 24.7936 21.8866 23.9291 22.8577 23.3656C26.3411 21.3446 28.6875 17.5719 28.6875 13.25C28.6875 6.79517 23.4548 1.5625 17 1.5625Z" fill="#A685FA"/>
<path fill-rule="evenodd" clip-rule="evenodd" d="M12.7686 28.6912C12.878 28.1147 13.434 27.7359 14.0105 27.8453C14.9781 28.0288 15.9773 28.125 17 28.125C18.0227 28.125 19.0219 28.0288 19.9895 27.8453C20.566 27.7359 21.122 28.1147 21.2314 28.6912C21.3407 29.2677 20.962 29.8237 20.3855 29.9331C19.2881 30.1413 18.1563 30.25 17 30.25C15.8438 30.25 14.7119 30.1413 13.6145 29.9331C13.038 29.8237 12.6593 29.2677 12.7686 28.6912Z" fill="#A685FA"/>
<path fill-rule="evenodd" clip-rule="evenodd" d="M13.8183 32.154C13.8793 31.5703 14.4019 31.1467 14.9855 31.2078C15.6472 31.277 16.3193 31.3125 17 31.3125C17.6807 31.3125 18.3528 31.277 19.0145 31.2078C19.5981 31.1467 20.1207 31.5703 20.1817 32.154C20.2428 32.7376 19.8192 33.2602 19.2355 33.3212C18.5005 33.3981 17.7547 33.4375 17 33.4375C16.2453 33.4375 15.4995 33.3981 14.7645 33.3212C14.1808 33.2602 13.7572 32.7376 13.8183 32.154Z" fill="#A685FA"/>
</svg>
