<svg width="35" height="34" viewBox="0 0 35 34" fill="none" xmlns="http://www.w3.org/2000/svg">
<g id="Icon">
<g id="Union">
<path d="M17.0751 3.97416C17.3463 3.85566 17.6546 3.85566 17.9259 3.97416C23.1942 6.27599 28.1873 9.08986 32.8422 12.3527C33.1791 12.5888 33.3494 12.9982 33.2793 13.4036C33.2093 13.809 32.9116 14.1375 32.515 14.247C31.5447 14.5148 30.5828 14.8032 29.6296 15.1107C25.7606 16.3584 22.0362 17.9284 18.488 19.7891L18.4834 19.7915C18.3225 19.8759 18.162 19.9609 18.0018 20.0464C17.689 20.2136 17.3133 20.2136 17.0004 20.0464C16.8387 19.9601 16.6767 19.8743 16.5142 19.7891C14.7598 18.8691 12.9622 18.0201 11.1254 17.246V16.9291C11.1254 16.743 11.2209 16.5779 11.3687 16.4884C13.5009 15.1966 15.7003 14.0047 17.9604 12.9191C18.4893 12.665 18.7122 12.0303 18.4581 11.5013C18.204 10.9724 17.5693 10.7495 17.0403 11.0036C14.7181 12.1191 12.4582 13.3437 10.2676 14.6709C9.62528 15.06 9.19349 15.6969 9.05147 16.4103C7.84033 15.9445 6.61327 15.5105 5.37128 15.11C4.41811 14.8026 3.45615 14.5148 2.48589 14.2469C2.08933 14.1375 1.7916 13.8089 1.72159 13.4036C1.65158 12.9982 1.82187 12.5888 2.15873 12.3527C6.81367 9.08984 11.8067 6.27599 17.0751 3.97416Z" fill="#A685FA"/>
<path d="M19.0033 21.9207C22.4583 20.0746 26.0883 18.514 29.8619 17.27C30.0521 19.2743 30.1735 21.2985 30.2238 23.3403C30.2346 23.7783 29.9754 24.1781 29.571 24.3469C25.5319 26.0333 21.69 28.0982 18.0896 30.4975C17.7328 30.7353 17.268 30.7353 16.9112 30.4975C13.3108 28.0982 9.4689 26.0333 5.42979 24.3469C5.02543 24.1781 4.76618 23.7783 4.77697 23.3403C4.82728 21.2984 4.94871 19.274 5.13892 17.2695C6.44367 17.6996 7.73125 18.1676 9.00037 18.6721V20.4718C8.3652 20.8392 7.93787 21.5259 7.93787 22.3125C7.93787 23.0142 8.27798 23.6365 8.80234 24.0234C8.67553 24.5627 8.48785 25.0903 8.23929 25.5956C8.88061 25.8983 9.51644 26.2107 10.1466 26.5327C10.5055 25.8027 10.7657 25.0366 10.9272 24.2543C11.6701 23.9232 12.1879 23.1783 12.1879 22.3125C12.1879 21.5259 11.7605 20.8392 11.1254 20.4718V19.5584C12.7848 20.2834 14.4104 21.0719 15.999 21.9207C16.9376 22.4222 18.0646 22.4222 19.0033 21.9207Z" fill="#A685FA"/>
<path d="M6.82185 27.5716C7.41562 26.9778 7.88831 26.309 8.23929 25.5956C8.88061 25.8983 9.51644 26.2107 10.1466 26.5327C9.69531 27.4505 9.08769 28.3109 8.32445 29.0742C7.90952 29.4891 7.23678 29.4891 6.82185 29.0742C6.40692 28.6593 6.40692 27.9865 6.82185 27.5716Z" fill="#A685FA"/>
</g>
</g>
</svg>
