<svg width="18" height="18" viewBox="0 0 18 18" fill="none" xmlns="http://www.w3.org/2000/svg">
<g id="Frame 3187" clip-path="url(#clip0_75_938)">
<g id="Group">
<path id="Vector" d="M9 18.01C13.9706 18.01 18 13.9805 18 9.00996C18 4.0394 13.9706 0.0100098 9 0.0100098C4.02944 0.0100098 0 4.0394 0 9.00996C0 13.9805 4.02944 18.01 9 18.01Z" fill="#333333"/>
<path id="Vector_2" d="M0 27C4.97056 27 9 22.9706 9 18C9 13.0294 4.97056 9 0 9C-4.97056 9 -9 13.0294 -9 18C-9 22.9706 -4.97056 27 0 27Z" fill="#141414"/>
<path id="Vector_3" d="M18 27C22.9706 27 27 22.9706 27 18C27 13.0294 22.9706 9 18 9C13.0294 9 9 13.0294 9 18C9 22.9706 13.0294 27 18 27Z" fill="#141414"/>
<path id="Vector_4" d="M0 9C4.97056 9 9 4.97056 9 0C9 -4.97056 4.97056 -9 0 -9C-4.97056 -9 -9 -4.97056 -9 0C-9 4.97056 -4.97056 9 0 9Z" fill="#141414"/>
<path id="Vector_5" d="M18 9C22.9706 9 27 4.97056 27 0C27 -4.97056 22.9706 -9 18 -9C13.0294 -9 9 -4.97056 9 0C9 4.97056 13.0294 9 18 9Z" fill="#141414"/>
</g>
</g>
<defs>
<clipPath id="clip0_75_938">
<rect width="18" height="18" fill="white"/>
</clipPath>
</defs>
</svg>
