<svg width="30" height="30" viewBox="0 0 30 30" fill="none" xmlns="http://www.w3.org/2000/svg">
<g id="Frame 3186" clip-path="url(#clip0_75_931)">
<g id="Group">
<path id="Vector" d="M15 30.0166C23.2843 30.0166 30 23.3009 30 15.0166C30 6.73233 23.2843 0.0166836 15 0.0166836C6.71573 0.0166836 0 6.73233 0 15.0166C0 23.3009 6.71573 30.0166 15 30.0166Z" fill="#666666"/>
<path id="Vector_2" d="M0 45C8.28427 45 15 38.2843 15 30C15 21.7157 8.28427 15 0 15C-8.28427 15 -15 21.7157 -15 30C-15 38.2843 -8.28427 45 0 45Z" fill="#141414"/>
<path id="Vector_3" d="M30 45C38.2843 45 45 38.2843 45 30C45 21.7157 38.2843 15 30 15C21.7157 15 15 21.7157 15 30C15 38.2843 21.7157 45 30 45Z" fill="#141414"/>
<path id="Vector_4" d="M0 15C8.28427 15 15 8.28427 15 0C15 -8.28427 8.28427 -15 0 -15C-8.28427 -15 -15 -8.28427 -15 0C-15 8.28427 -8.28427 15 0 15Z" fill="#141414"/>
<path id="Vector_5" d="M30 15C38.2843 15 45 8.28427 45 0C45 -8.28427 38.2843 -15 30 -15C21.7157 -15 15 -8.28427 15 0C15 8.28427 21.7157 15 30 15Z" fill="#141414"/>
</g>
</g>
<defs>
<clipPath id="clip0_75_931">
<rect width="30" height="30" fill="white"/>
</clipPath>
</defs>
</svg>
