<svg width="9" height="10" viewBox="0 0 9 10" fill="none" xmlns="http://www.w3.org/2000/svg">
<g id="Frame 3188" clip-path="url(#clip0_75_945)">
<g id="Group">
<path id="Vector" d="M4.2 9.20465C6.5196 9.20465 8.4 7.32424 8.4 5.00465C8.4 2.68505 6.5196 0.804672 4.2 0.804672C1.8804 0.804672 0 2.68505 0 5.00465C0 7.32424 1.8804 9.20465 4.2 9.20465Z" fill="#333333"/>
<path id="Vector_2" d="M-0.000195026 13.4C2.3194 13.4 4.19981 11.5196 4.19981 9.2C4.19981 6.8804 2.3194 5 -0.000195026 5C-2.31979 5 -4.2002 6.8804 -4.2002 9.2C-4.2002 11.5196 -2.31979 13.4 -0.000195026 13.4Z" fill="#141414"/>
<path id="Vector_3" d="M8.39971 13.4C10.7193 13.4 12.5997 11.5196 12.5997 9.2C12.5997 6.8804 10.7193 5 8.39971 5C6.08011 5 4.19971 6.8804 4.19971 9.2C4.19971 11.5196 6.08011 13.4 8.39971 13.4Z" fill="#141414"/>
<path id="Vector_4" d="M-0.000195026 5C2.3194 5 4.19981 3.1196 4.19981 0.8C4.19981 -1.5196 2.3194 -3.4 -0.000195026 -3.4C-2.31979 -3.4 -4.2002 -1.5196 -4.2002 0.8C-4.2002 3.1196 -2.31979 5 -0.000195026 5Z" fill="#141414"/>
<path id="Vector_5" d="M8.39971 5C10.7193 5 12.5997 3.1196 12.5997 0.8C12.5997 -1.5196 10.7193 -3.4 8.39971 -3.4C6.08011 -3.4 4.19971 -1.5196 4.19971 0.8C4.19971 3.1196 6.08011 5 8.39971 5Z" fill="#141414"/>
</g>
</g>
<defs>
<clipPath id="clip0_75_945">
<rect width="8.4" height="8.4" fill="white" transform="translate(0 0.8)"/>
</clipPath>
</defs>
</svg>
