<svg width="34" height="34" viewBox="0 0 34 34" fill="none" xmlns="http://www.w3.org/2000/svg">
<g id="Icon">
<g id="Vector">
<path fill-rule="evenodd" clip-rule="evenodd" d="M11.6875 9.5625C11.6875 6.62849 14.066 4.25 17 4.25C19.934 4.25 22.3125 6.62849 22.3125 9.5625C22.3125 12.4965 19.934 14.875 17 14.875C14.066 14.875 11.6875 12.4965 11.6875 9.5625Z" fill="#A685FA"/>
<path fill-rule="evenodd" clip-rule="evenodd" d="M22.3125 13.8125C22.3125 11.4653 24.2153 9.5625 26.5625 9.5625C28.9097 9.5625 30.8125 11.4653 30.8125 13.8125C30.8125 16.1597 28.9097 18.0625 26.5625 18.0625C24.2153 18.0625 22.3125 16.1597 22.3125 13.8125Z" fill="#A685FA"/>
<path fill-rule="evenodd" clip-rule="evenodd" d="M3.1875 13.8125C3.1875 11.4653 5.09029 9.5625 7.4375 9.5625C9.78471 9.5625 11.6875 11.4653 11.6875 13.8125C11.6875 16.1597 9.78471 18.0625 7.4375 18.0625C5.09029 18.0625 3.1875 16.1597 3.1875 13.8125Z" fill="#A685FA"/>
<path fill-rule="evenodd" clip-rule="evenodd" d="M8.93897 21.4165C10.6361 18.7629 13.6118 17 17 17C20.3886 17 23.3646 18.7633 25.0617 21.4175C26.2349 23.2524 26.7425 25.4649 26.5044 27.6221C26.4672 27.9592 26.2712 28.2583 25.9771 28.4271C23.3317 29.945 20.2655 30.8125 17 30.8125C13.7345 30.8125 10.6683 29.945 8.02293 28.4271C7.72875 28.2583 7.53284 27.9592 7.49563 27.6221C7.25749 25.4645 7.76533 23.2516 8.93897 21.4165Z" fill="#A685FA"/>
<path d="M7.1999 20.1927C7.18284 20.2189 7.16589 20.2452 7.14903 20.2716C5.7813 22.4101 5.15536 24.957 5.34751 27.4678C4.48611 27.3369 3.65032 27.1265 2.84811 26.8439L2.68525 26.7866C2.38816 26.682 2.18057 26.4122 2.15559 26.0982L2.14189 25.9261C2.13069 25.7853 2.125 25.6432 2.125 25.5C2.125 22.6456 4.37615 20.317 7.1999 20.1927Z" fill="#A685FA"/>
<path d="M28.653 27.4677C28.8451 24.9574 28.2195 22.4111 26.8522 20.2728C26.8351 20.246 26.8179 20.2193 26.8006 20.1927C29.6241 20.3173 31.875 22.6458 31.875 25.5C31.875 25.6432 31.8693 25.7853 31.8581 25.9261L31.8444 26.0982C31.8194 26.4122 31.6118 26.682 31.3148 26.7866L31.1519 26.8439C30.3498 27.1264 29.5142 27.3368 28.653 27.4677Z" fill="#A685FA"/>
</g>
</g>
</svg>
