<svg width="24" height="24" viewBox="0 0 24 24" fill="none" xmlns="http://www.w3.org/2000/svg">
<g id="Icon">
<path id="Vector" d="M20.4701 1.9999H3.53006C3.33964 1.99725 3.15056 2.03214 2.97362 2.10258C2.79669 2.17302 2.63536 2.27762 2.49886 2.41041C2.36235 2.5432 2.25334 2.70158 2.17805 2.87651C2.10276 3.05143 2.06267 3.23947 2.06006 3.4299V20.5699C2.06267 20.7603 2.10276 20.9484 2.17805 21.1233C2.25334 21.2982 2.36235 21.4566 2.49886 21.5894C2.63536 21.7222 2.79669 21.8268 2.97362 21.8972C3.15056 21.9676 3.33964 22.0025 3.53006 21.9999H20.4701C20.6605 22.0025 20.8496 21.9676 21.0265 21.8972C21.2034 21.8268 21.3648 21.7222 21.5013 21.5894C21.6378 21.4566 21.7468 21.2982 21.8221 21.1233C21.8974 20.9484 21.9375 20.7603 21.9401 20.5699V3.4299C21.9375 3.23947 21.8974 3.05143 21.8221 2.87651C21.7468 2.70158 21.6378 2.5432 21.5013 2.41041C21.3648 2.27762 21.2034 2.17302 21.0265 2.10258C20.8496 2.03214 20.6605 1.99725 20.4701 1.9999ZM8.09006 18.7399H5.09006V9.7399H8.09006V18.7399ZM6.59006 8.4799C6.17632 8.4799 5.77953 8.31554 5.48697 8.02298C5.19442 7.73043 5.03006 7.33363 5.03006 6.9199C5.03006 6.50616 5.19442 6.10937 5.48697 5.81681C5.77953 5.52425 6.17632 5.3599 6.59006 5.3599C6.80975 5.33498 7.03224 5.35675 7.24293 5.42378C7.45363 5.49081 7.6478 5.60159 7.81272 5.74886C7.97763 5.89613 8.10958 6.07657 8.19993 6.27838C8.29028 6.48018 8.33698 6.69879 8.33698 6.9199C8.33698 7.141 8.29028 7.35961 8.19993 7.56141C8.10958 7.76322 7.97763 7.94366 7.81272 8.09093C7.6478 8.23821 7.45363 8.34898 7.24293 8.41601C7.03224 8.48304 6.80975 8.50481 6.59006 8.4799ZM18.9101 18.7399H15.9101V13.9099C15.9101 12.6999 15.4801 11.9099 14.3901 11.9099C14.0527 11.9124 13.7242 12.0182 13.4489 12.2131C13.1735 12.408 12.9645 12.6826 12.8501 12.9999C12.7718 13.2349 12.7379 13.4825 12.7501 13.7299V18.7299H9.75006C9.75006 18.7299 9.75006 10.5499 9.75006 9.7299H12.7501V10.9999C13.0226 10.527 13.419 10.1374 13.8965 9.8731C14.374 9.60878 14.9146 9.47975 15.4601 9.4999C17.4601 9.4999 18.9101 10.7899 18.9101 13.5599V18.7399Z" fill="white"/>
</g>
</svg>
