<svg width="34" height="34" viewBox="0 0 34 34" fill="none" xmlns="http://www.w3.org/2000/svg">
<path d="M17 3.1875C17.5868 3.1875 18.0625 3.6632 18.0625 4.25V7.4375C18.0625 8.0243 17.5868 8.5 17 8.5C16.4132 8.5 15.9375 8.0243 15.9375 7.4375V4.25C15.9375 3.6632 16.4132 3.1875 17 3.1875Z" fill="#A685FA"/>
<path d="M10.625 17C10.625 13.4792 13.4792 10.625 17 10.625C20.5208 10.625 23.375 13.4792 23.375 17C23.375 20.5208 20.5208 23.375 17 23.375C13.4792 23.375 10.625 20.5208 10.625 17Z" fill="#A685FA"/>
<path d="M26.767 8.73565C27.1819 8.32071 27.1819 7.64798 26.767 7.23304C26.3521 6.81811 25.6793 6.81811 25.2644 7.23304L23.0105 9.48695C22.5955 9.90188 22.5955 10.5746 23.0105 10.9895C23.4254 11.4045 24.0982 11.4045 24.5131 10.9895L26.767 8.73565Z" fill="#A685FA"/>
<path d="M30.8125 17C30.8125 17.5868 30.3368 18.0625 29.75 18.0625H26.5625C25.9757 18.0625 25.5 17.5868 25.5 17C25.5 16.4132 25.9757 15.9375 26.5625 15.9375H29.75C30.3368 15.9375 30.8125 16.4132 30.8125 17Z" fill="#A685FA"/>
<path d="M25.2642 26.7669C25.6792 27.1818 26.3519 27.1818 26.7668 26.7669C27.1818 26.3519 27.1818 25.6792 26.7668 25.2643L24.5129 23.0104C24.098 22.5954 23.4253 22.5954 23.0103 23.0104C22.5954 23.4253 22.5954 24.098 23.0103 24.513L25.2642 26.7669Z" fill="#A685FA"/>
<path d="M17 25.5C17.5868 25.5 18.0625 25.9757 18.0625 26.5625V29.75C18.0625 30.3368 17.5868 30.8125 17 30.8125C16.4132 30.8125 15.9375 30.3368 15.9375 29.75V26.5625C15.9375 25.9757 16.4132 25.5 17 25.5Z" fill="#A685FA"/>
<path d="M10.9898 24.513C11.4047 24.098 11.4047 23.4253 10.9898 23.0104C10.5749 22.5954 9.90213 22.5954 9.48719 23.0104L7.23329 25.2643C6.81836 25.6792 6.81836 26.3519 7.23329 26.7669C7.64822 27.1818 8.32096 27.1818 8.73589 26.7669L10.9898 24.513Z" fill="#A685FA"/>
<path d="M8.5 17C8.5 17.5868 8.0243 18.0625 7.4375 18.0625H4.25C3.6632 18.0625 3.1875 17.5868 3.1875 17C3.1875 16.4132 3.6632 15.9375 4.25 15.9375H7.4375C8.0243 15.9375 8.5 16.4132 8.5 17Z" fill="#A685FA"/>
<path d="M9.48703 10.9895C9.90197 11.4045 10.5747 11.4045 10.9896 10.9895C11.4046 10.5746 11.4046 9.90187 10.9896 9.48693L8.73573 7.23303C8.3208 6.8181 7.64806 6.8181 7.23313 7.23303C6.8182 7.64796 6.8182 8.3207 7.23313 8.73563L9.48703 10.9895Z" fill="#A685FA"/>
</svg>
