<svg width="24" height="25" viewBox="0 0 24 25" fill="#fff" xmlns="http://www.w3.org/2000/svg">
<g id="Icon">
<path id="Subtract" fill-rule="evenodd" clip-rule="evenodd" d="M11.5397 22.851C11.57 22.8685 11.5937 22.8821 11.6105 22.8915L11.6384 22.9071C11.8613 23.0294 12.1378 23.0285 12.3608 22.9075L12.3895 22.8915C12.4063 22.8821 12.43 22.8685 12.4603 22.851C12.5207 22.816 12.607 22.765 12.7155 22.6982C12.9325 22.5646 13.2388 22.3676 13.6046 22.1091C14.3351 21.5931 15.3097 20.8274 16.2865 19.8273C18.2307 17.8368 20.25 14.8462 20.25 11C20.25 6.44365 16.5563 2.75 12 2.75C7.44365 2.75 3.75 6.44365 3.75 11C3.75 14.8462 5.76932 17.8368 7.71346 19.8273C8.69025 20.8274 9.66491 21.5931 10.3954 22.1091C10.7612 22.3676 11.0675 22.5646 11.2845 22.6982C11.393 22.765 11.4793 22.816 11.5397 22.851ZM12 14C13.6569 14 15 12.6569 15 11C15 9.34315 13.6569 8 12 8C10.3431 8 9 9.34315 9 11C9 12.6569 10.3431 14 12 14Z"/>
</g>
</svg>
