<svg width="35" height="34" viewBox="0 0 35 34" fill="none" xmlns="http://www.w3.org/2000/svg">
<path fill-rule="evenodd" clip-rule="evenodd" d="M16.848 31.664C16.8908 31.6888 16.9244 31.7079 16.9482 31.7213L16.9878 31.7434C17.3035 31.9167 17.6952 31.9154 18.0112 31.7439L18.0518 31.7213C18.0756 31.7079 18.1092 31.6888 18.152 31.664C18.2376 31.6144 18.3599 31.5421 18.5136 31.4474C18.821 31.2582 19.2549 30.9791 19.7732 30.6129C20.808 29.8819 22.1888 28.7972 23.5726 27.3804C26.3268 24.5605 29.1875 20.3237 29.1875 14.875C29.1875 8.42017 23.9548 3.1875 17.5 3.1875C11.0452 3.1875 5.8125 8.42017 5.8125 14.875C5.8125 20.3237 8.67321 24.5605 11.4274 27.3804C12.8112 28.7972 14.192 29.8819 15.2268 30.6129C15.7451 30.9791 16.179 31.2582 16.4864 31.4474C16.6401 31.5421 16.7624 31.6144 16.848 31.664ZM17.5 19.125C19.8472 19.125 21.75 17.2222 21.75 14.875C21.75 12.5278 19.8472 10.625 17.5 10.625C15.1528 10.625 13.25 12.5278 13.25 14.875C13.25 17.2222 15.1528 19.125 17.5 19.125Z" fill="#A685FA"/>
</svg>
