<svg width="34" height="34" viewBox="0 0 34 34" fill="none" xmlns="http://www.w3.org/2000/svg">
<path fill-rule="evenodd" clip-rule="evenodd" d="M3.1875 5.84375C3.1875 4.37674 4.37674 3.1875 5.84375 3.1875H13.2812C14.7483 3.1875 15.9375 4.37674 15.9375 5.84375V24.4375C15.9375 27.9583 13.0833 30.8125 9.5625 30.8125C6.04168 30.8125 3.1875 27.9583 3.1875 24.4375V5.84375ZM9.5625 26.0312C10.4427 26.0312 11.1562 25.3177 11.1562 24.4375C11.1562 23.5573 10.4427 22.8438 9.5625 22.8438C8.6823 22.8438 7.96875 23.5573 7.96875 24.4375C7.96875 25.3177 8.6823 26.0312 9.5625 26.0312Z" fill="#A685FA"/>
<path d="M15.1852 30.8125H28.1564C29.6234 30.8125 30.8127 29.6233 30.8127 28.1562V20.7188C30.8127 19.2517 29.6234 18.0625 28.1564 18.0625H27.9584L15.573 30.4479C15.4466 30.5743 15.3173 30.6958 15.1852 30.8125Z" fill="#A685FA"/>
<path d="M18.0459 24.9694L27.2178 15.7975C28.2551 14.7602 28.2551 13.0784 27.2178 12.041L21.9587 6.78193C20.9213 5.7446 19.2395 5.7446 18.2021 6.78193L18.0623 6.9218V24.4375C18.0623 24.6161 18.0568 24.7935 18.0459 24.9694Z" fill="#A685FA"/>
</svg>
