<svg width="28" height="28" viewBox="0 0 28 28" fill="none" xmlns="http://www.w3.org/2000/svg">
<path fill-rule="evenodd" clip-rule="evenodd" d="M0.1875 16.125C0.1875 9.67017 5.42017 4.4375 11.875 4.4375C12.4618 4.4375 12.9375 4.9132 12.9375 5.5V15.0625H22.5C23.0868 15.0625 23.5625 15.5382 23.5625 16.125C23.5625 22.5798 18.3298 27.8125 11.875 27.8125C5.42017 27.8125 0.1875 22.5798 0.1875 16.125Z" fill="#A685FA"/>
<path fill-rule="evenodd" clip-rule="evenodd" d="M15.0625 1.25C15.0625 0.663197 15.5382 0.1875 16.125 0.1875C22.5798 0.1875 27.8125 5.42017 27.8125 11.875C27.8125 12.4618 27.3368 12.9375 26.75 12.9375H16.125C15.5382 12.9375 15.0625 12.4618 15.0625 11.875V1.25Z" fill="#A685FA"/>
</svg>
