<svg width="26" height="30" viewBox="0 0 26 30" fill="none" xmlns="http://www.w3.org/2000/svg">
<path d="M25.75 7.03125C25.75 10.8455 20.0416 13.9375 13 13.9375C5.95837 13.9375 0.25 10.8455 0.25 7.03125C0.25 3.21703 5.95837 0.125 13 0.125C20.0416 0.125 25.75 3.21703 25.75 7.03125Z" fill="#A685FA"/>
<path d="M13 16.0625C16.804 16.0625 20.3532 15.2319 23.0277 13.7832C24.0052 13.2537 24.9351 12.5978 25.7142 11.822C25.7379 11.9943 25.75 12.1682 25.75 12.3438C25.75 16.158 20.0416 19.25 13 19.25C5.95837 19.25 0.25 16.158 0.25 12.3438C0.25 12.1682 0.262086 11.9943 0.285833 11.822C1.0649 12.5978 1.9948 13.2537 2.97229 13.7832C5.64678 15.2319 9.19598 16.0625 13 16.0625Z" fill="#A685FA"/>
<path d="M13 21.375C16.804 21.375 20.3532 20.5444 23.0277 19.0957C24.0052 18.5662 24.9351 17.9103 25.7142 17.1345C25.7379 17.3068 25.75 17.4807 25.75 17.6562C25.75 21.4705 20.0416 24.5625 13 24.5625C5.95837 24.5625 0.25 21.4705 0.25 17.6562C0.25 17.4807 0.262086 17.3068 0.285833 17.1345C1.0649 17.9103 1.9948 18.5662 2.97229 19.0957C5.64678 20.5444 9.19598 21.375 13 21.375Z" fill="#A685FA"/>
<path d="M13 26.6875C16.804 26.6875 20.3532 25.8569 23.0277 24.4082C24.0052 23.8787 24.9351 23.2228 25.7142 22.447C25.7379 22.6193 25.75 22.7932 25.75 22.9687C25.75 26.783 20.0416 29.875 13 29.875C5.95837 29.875 0.25 26.783 0.25 22.9687C0.25 22.7932 0.262086 22.6193 0.285833 22.447C1.0649 23.2228 1.9948 23.8787 2.97229 24.4082C5.64678 25.8569 9.19598 26.6875 13 26.6875Z" fill="#A685FA"/>
</svg>
