<svg width="35" height="34" viewBox="0 0 35 34" fill="none" xmlns="http://www.w3.org/2000/svg">
<path fill-rule="evenodd" clip-rule="evenodd" d="M2.625 6.375C2.625 4.02779 4.52779 2.125 6.875 2.125H8.81814C10.037 2.125 11.0995 2.95454 11.3951 4.13701L12.9616 10.4032C13.2208 11.44 12.8334 12.5312 11.9784 13.1724L10.1458 14.5469C9.9555 14.6896 9.91413 14.8986 9.96758 15.0446C11.5762 19.4359 15.0641 22.9238 19.4554 24.5324C19.6014 24.5859 19.8104 24.5445 19.9531 24.3542L21.3276 22.5216C21.9688 21.6666 23.06 21.2792 24.0968 21.5384L30.363 23.1049C31.5455 23.4005 32.375 24.463 32.375 25.6819V27.625C32.375 29.9722 30.4722 31.875 28.125 31.875H24.9375C12.6146 31.875 2.625 21.8854 2.625 9.5625V6.375Z" fill="#A685FA"/>
</svg>
