<svg width="35" height="34" viewBox="0 0 35 34" fill="none" xmlns="http://www.w3.org/2000/svg">
<g id="Icon">
<g id="Union">
<path d="M17.5 10.625C15.7396 10.625 14.3125 12.0521 14.3125 13.8125C14.3125 15.5729 15.7396 17 17.5 17C19.2604 17 20.6875 15.5729 20.6875 13.8125C20.6875 12.0521 19.2604 10.625 17.5 10.625Z" fill="#A685FA"/>
<path fill-rule="evenodd" clip-rule="evenodd" d="M2.625 6.90625C2.625 5.43924 3.81424 4.25 5.28125 4.25H29.7188C31.1858 4.25 32.375 5.43924 32.375 6.90625V20.7188C32.375 22.1858 31.1858 23.375 29.7188 23.375H5.28125C3.81424 23.375 2.625 22.1858 2.625 20.7188V6.90625ZM12.1875 13.8125C12.1875 10.8785 14.566 8.5 17.5 8.5C20.434 8.5 22.8125 10.8785 22.8125 13.8125C22.8125 16.7465 20.434 19.125 17.5 19.125C14.566 19.125 12.1875 16.7465 12.1875 13.8125ZM27.0625 12.75C26.4757 12.75 26 13.2257 26 13.8125V13.8231C26 14.4099 26.4757 14.8856 27.0625 14.8856H27.0731C27.6599 14.8856 28.1356 14.4099 28.1356 13.8231V13.8125C28.1356 13.2257 27.6599 12.75 27.0731 12.75H27.0625ZM6.875 13.8125C6.875 13.2257 7.3507 12.75 7.9375 12.75H7.94813C8.53493 12.75 9.01063 13.2257 9.01063 13.8125V13.8231C9.01063 14.4099 8.53493 14.8856 7.94813 14.8856H7.9375C7.3507 14.8856 6.875 14.4099 6.875 13.8231V13.8125Z" fill="#A685FA"/>
<path d="M3.6875 25.5C3.1007 25.5 2.625 25.9757 2.625 26.5625C2.625 27.1493 3.1007 27.625 3.6875 27.625C11.3376 27.625 18.747 28.6481 25.7872 30.5644C27.4738 31.0235 29.1875 29.7738 29.1875 27.9864V26.5625C29.1875 25.9757 28.7118 25.5 28.125 25.5H3.6875Z" fill="#A685FA"/>
</g>
</g>
</svg>
