<svg width="35" height="35" viewBox="0 0 35 35" fill="none" xmlns="http://www.w3.org/2000/svg">
<path fill-rule="evenodd" clip-rule="evenodd" d="M18.8647 3.73814C18.6922 3.5068 18.433 3.35558 18.1468 3.31925C17.8605 3.28292 17.5717 3.36459 17.3469 3.5455C14.6975 5.67733 12.8496 8.7701 12.3337 12.2956C11.4036 11.6214 10.5867 10.7998 9.91743 9.86525C9.73332 9.60815 9.44427 9.44641 9.12884 9.42401C8.81342 9.40161 8.50441 9.52086 8.28581 9.74936C6.0965 12.0379 4.75 15.1438 4.75 18.5619C4.75 25.6036 10.4584 31.3119 17.5 31.3119C24.5416 31.3119 30.25 25.6036 30.25 18.5619C30.25 13.3757 27.1536 8.91492 22.713 6.92319C21.1417 6.15607 19.8441 5.05146 18.8647 3.73814ZM22.8125 20.6875C22.8125 23.6215 20.434 26 17.5 26C14.566 26 12.1875 23.6215 12.1875 20.6875C12.1875 20.1076 12.2804 19.5494 12.4522 19.027C13.3425 19.6852 14.3659 20.1737 15.4746 20.4447C15.7804 18.4603 16.7726 16.7023 18.2011 15.4209C20.8037 15.764 22.8125 17.9912 22.8125 20.6875Z" fill="#A685FA"/>
</svg>
