<svg width="35" height="34" viewBox="0 0 35 34" fill="none" xmlns="http://www.w3.org/2000/svg">
<g id="Icon">
<g id="Union">
<path d="M5.39366 12.1058C7.38533 14.0975 10.6145 14.0975 12.6061 12.1058C12.8509 11.8611 13.0656 11.5976 13.2502 11.3201C14.1639 12.6941 15.7261 13.5996 17.4999 13.5996C19.2739 13.5996 20.8364 12.6938 21.75 11.3196C21.9347 11.5973 22.1495 11.8609 22.3944 12.1059C24.3861 14.0975 27.6152 14.0975 29.6069 12.1059C31.5986 10.1142 31.5986 6.88504 29.6069 4.89336L29.1094 4.39583C28.4718 3.75821 27.607 3.39999 26.7052 3.39999H8.29529C7.39356 3.39999 6.52876 3.75821 5.89113 4.39583L5.39366 4.8933C3.40198 6.88498 3.40198 10.1141 5.39366 12.1058Z" fill="#A685FA"/>
<path d="M5.5999 15.3548C8.02749 16.5591 10.9616 16.3947 13.2509 14.8615C14.4654 15.6741 15.9269 16.1496 17.4999 16.1496C19.073 16.1496 20.5347 15.674 21.7493 14.8612C24.0384 16.3946 26.9723 16.5592 29.3999 15.3552V28.05H29.8249C30.5291 28.05 31.0999 28.6208 31.0999 29.325C31.0999 30.0292 30.5291 30.6 29.8249 30.6H22.1749C21.4707 30.6 20.8999 30.0292 20.8999 29.325V23.375C20.8999 22.6708 20.3291 22.1 19.6249 22.1H15.3749C14.6707 22.1 14.0999 22.6708 14.0999 23.375V29.325C14.0999 30.0292 13.5291 30.6 12.8249 30.6H5.1749C4.47074 30.6 3.8999 30.0292 3.8999 29.325C3.8999 28.6208 4.47074 28.05 5.1749 28.05H5.5999V15.3548Z" fill="#A685FA"/>
</g>
</g>
</svg>
