<svg width="29" height="28" viewBox="0 0 29 28" fill="none" xmlns="http://www.w3.org/2000/svg">
<path d="M2.39219 9.10582C4.38387 11.0975 7.61301 11.0975 9.60468 9.10582C9.84942 8.86108 10.0641 8.59765 10.2487 8.32013C11.1624 9.69412 12.7247 10.5996 14.4984 10.5996C16.2724 10.5996 17.8349 9.69388 18.7486 8.31958C18.9332 8.59733 19.148 8.86096 19.393 9.10588C21.3846 11.0976 24.6138 11.0976 26.6054 9.10588C28.5971 7.11421 28.5971 3.88507 26.6054 1.89339L26.1079 1.39586C25.4703 0.758237 24.6055 0.400024 23.7038 0.400024H5.29383C4.39209 0.400024 3.52729 0.758237 2.88967 1.39586L2.39219 1.89333C0.400519 3.88501 0.400519 7.11415 2.39219 9.10582Z" fill="#A685FA"/>
<path d="M2.59844 12.3548C5.02603 13.5592 7.96012 13.3947 10.2494 11.8615C11.4639 12.6741 12.9255 13.1496 14.4984 13.1496C16.0716 13.1496 17.5332 12.6741 18.7478 11.8613C21.0369 13.3946 23.9708 13.5593 26.3984 12.3553V25.05H26.8234C27.5276 25.05 28.0984 25.6209 28.0984 26.325C28.0984 27.0292 27.5276 27.6 26.8234 27.6H19.1734C18.4693 27.6 17.8984 27.0292 17.8984 26.325V20.375C17.8984 19.6709 17.3276 19.1 16.6234 19.1H12.3734C11.6693 19.1 11.0984 19.6709 11.0984 20.375V26.325C11.0984 27.0292 10.5276 27.6 9.82344 27.6H2.17344C1.46927 27.6 0.898438 27.0292 0.898438 26.325C0.898438 25.6209 1.46927 25.05 2.17344 25.05H2.59844V12.3548Z" fill="#A685FA"/>
</svg>
