<svg width="35" height="34" viewBox="0 0 35 34" fill="none" xmlns="http://www.w3.org/2000/svg">
<g id="Icon">
<g id="Union">
<path d="M17.5 3.1875C18.0868 3.1875 18.5625 3.6632 18.5625 4.25V7.4375C18.5625 8.0243 18.0868 8.5 17.5 8.5C16.9132 8.5 16.4375 8.0243 16.4375 7.4375V4.25C16.4375 3.6632 16.9132 3.1875 17.5 3.1875Z" fill="#A685FA"/>
<path d="M11.125 17C11.125 13.4792 13.9792 10.625 17.5 10.625C21.0208 10.625 23.875 13.4792 23.875 17C23.875 20.5208 21.0208 23.375 17.5 23.375C13.9792 23.375 11.125 20.5208 11.125 17Z" fill="#A685FA"/>
<path d="M27.267 8.73565C27.6819 8.32071 27.6819 7.64798 27.267 7.23304C26.8521 6.81811 26.1793 6.81811 25.7644 7.23304L23.5105 9.48695C23.0955 9.90188 23.0955 10.5746 23.5105 10.9895C23.9254 11.4045 24.5982 11.4045 25.0131 10.9895L27.267 8.73565Z" fill="#A685FA"/>
<path d="M31.3125 17C31.3125 17.5868 30.8368 18.0625 30.25 18.0625H27.0625C26.4757 18.0625 26 17.5868 26 17C26 16.4132 26.4757 15.9375 27.0625 15.9375H30.25C30.8368 15.9375 31.3125 16.4132 31.3125 17Z" fill="#A685FA"/>
<path d="M25.7642 26.7669C26.1792 27.1818 26.8519 27.1818 27.2668 26.7669C27.6818 26.3519 27.6818 25.6792 27.2668 25.2643L25.0129 23.0104C24.598 22.5954 23.9253 22.5954 23.5103 23.0104C23.0954 23.4253 23.0954 24.098 23.5103 24.513L25.7642 26.7669Z" fill="#A685FA"/>
<path d="M17.5 25.5C18.0868 25.5 18.5625 25.9757 18.5625 26.5625V29.75C18.5625 30.3368 18.0868 30.8125 17.5 30.8125C16.9132 30.8125 16.4375 30.3368 16.4375 29.75V26.5625C16.4375 25.9757 16.9132 25.5 17.5 25.5Z" fill="#A685FA"/>
<path d="M11.4898 24.513C11.9047 24.098 11.9047 23.4253 11.4898 23.0104C11.0749 22.5954 10.4021 22.5954 9.98719 23.0104L7.73329 25.2643C7.31836 25.6792 7.31836 26.3519 7.73329 26.7669C8.14822 27.1818 8.82096 27.1818 9.23589 26.7669L11.4898 24.513Z" fill="#A685FA"/>
<path d="M9 17C9 17.5868 8.5243 18.0625 7.9375 18.0625H4.75C4.1632 18.0625 3.6875 17.5868 3.6875 17C3.6875 16.4132 4.1632 15.9375 4.75 15.9375H7.9375C8.5243 15.9375 9 16.4132 9 17Z" fill="#A685FA"/>
<path d="M9.98703 10.9895C10.402 11.4045 11.0747 11.4045 11.4896 10.9895C11.9046 10.5746 11.9046 9.90187 11.4896 9.48693L9.23573 7.23303C8.8208 6.8181 8.14806 6.8181 7.73313 7.23303C7.3182 7.64796 7.3182 8.3207 7.73313 8.73563L9.98703 10.9895Z" fill="#A685FA"/>
</g>
</g>
</svg>
