<svg width="69" height="30" viewBox="0 0 69 30" fill="none" xmlns="http://www.w3.org/2000/svg">
<g clip-path="url(#clip0_104_13421)">
<path d="M15 30.0166C23.2843 30.0166 30 23.3009 30 15.0166C30 6.73231 23.2843 0.0166626 15 0.0166626C6.71573 0.0166626 0 6.73231 0 15.0166C0 23.3009 6.71573 30.0166 15 30.0166Z" fill="#666666"/>
<path d="M0 45C8.28427 45 15 38.2843 15 30C15 21.7157 8.28427 15 0 15C-8.28427 15 -15 21.7157 -15 30C-15 38.2843 -8.28427 45 0 45Z" fill="#141414"/>
<path d="M30 45C38.2843 45 45 38.2843 45 30C45 21.7157 38.2843 15 30 15C21.7157 15 15 21.7157 15 30C15 38.2843 21.7157 45 30 45Z" fill="#141414"/>
<path d="M0 15C8.28427 15 15 8.28427 15 0C15 -8.28427 8.28427 -15 0 -15C-8.28427 -15 -15 -8.28427 -15 0C-15 8.28427 -8.28427 15 0 15Z" fill="#141414"/>
<path d="M30 15C38.2843 15 45 8.28427 45 0C45 -8.28427 38.2843 -15 30 -15C21.7157 -15 15 -8.28427 15 0C15 8.28427 21.7157 15 30 15Z" fill="#141414"/>
</g>
<g clip-path="url(#clip1_104_13421)">
<path d="M45 24.01C49.9706 24.01 54 19.9805 54 15.01C54 10.0394 49.9706 6.01001 45 6.01001C40.0294 6.01001 36 10.0394 36 15.01C36 19.9805 40.0294 24.01 45 24.01Z" fill="#333333"/>
<path d="M36 33C40.9706 33 45 28.9706 45 24C45 19.0294 40.9706 15 36 15C31.0294 15 27 19.0294 27 24C27 28.9706 31.0294 33 36 33Z" fill="#141414"/>
<path d="M54 33C58.9706 33 63 28.9706 63 24C63 19.0294 58.9706 15 54 15C49.0294 15 45 19.0294 45 24C45 28.9706 49.0294 33 54 33Z" fill="#141414"/>
<path d="M36 15C40.9706 15 45 10.9706 45 6C45 1.02944 40.9706 -3 36 -3C31.0294 -3 27 1.02944 27 6C27 10.9706 31.0294 15 36 15Z" fill="#141414"/>
<path d="M54 15C58.9706 15 63 10.9706 63 6C63 1.02944 58.9706 -3 54 -3C49.0294 -3 45 1.02944 45 6C45 10.9706 49.0294 15 54 15Z" fill="#141414"/>
</g>
<g clip-path="url(#clip2_104_13421)">
<path d="M64.2 19.2046C66.5196 19.2046 68.4 17.3242 68.4 15.0046C68.4 12.685 66.5196 10.8046 64.2 10.8046C61.8804 10.8046 60 12.685 60 15.0046C60 17.3242 61.8804 19.2046 64.2 19.2046Z" fill="#333333"/>
<path d="M60.0008 23.4C62.3204 23.4 64.2008 21.5196 64.2008 19.2C64.2008 16.8804 62.3204 15 60.0008 15C57.6812 15 55.8008 16.8804 55.8008 19.2C55.8008 21.5196 57.6812 23.4 60.0008 23.4Z" fill="#141414"/>
<path d="M68.3992 23.4C70.7188 23.4 72.5992 21.5196 72.5992 19.2C72.5992 16.8804 70.7188 15 68.3992 15C66.0796 15 64.1992 16.8804 64.1992 19.2C64.1992 21.5196 66.0796 23.4 68.3992 23.4Z" fill="#141414"/>
<path d="M60.0008 15C62.3204 15 64.2008 13.1196 64.2008 10.8C64.2008 8.48038 62.3204 6.59998 60.0008 6.59998C57.6812 6.59998 55.8008 8.48038 55.8008 10.8C55.8008 13.1196 57.6812 15 60.0008 15Z" fill="#141414"/>
<path d="M68.3992 15C70.7188 15 72.5992 13.1196 72.5992 10.8C72.5992 8.48038 70.7188 6.59998 68.3992 6.59998C66.0796 6.59998 64.1992 8.48038 64.1992 10.8C64.1992 13.1196 66.0796 15 68.3992 15Z" fill="#141414"/>
</g>
<defs>
<clipPath id="clip0_104_13421">
<rect width="30" height="30" fill="white"/>
</clipPath>
<clipPath id="clip1_104_13421">
<rect width="18" height="18" fill="white" transform="translate(36 6)"/>
</clipPath>
<clipPath id="clip2_104_13421">
<rect width="8.4" height="8.4" fill="white" transform="translate(60 10.8)"/>
</clipPath>
</defs>
</svg>
