<svg width="25" height="24" viewBox="0 0 25 24" fill="none" xmlns="http://www.w3.org/2000/svg">
<g id="Icon">
<g id="Iconly/Bulk/Send">
<g id="Send">
<path id="Fill-1" d="M22.1774 2.5783C21.6774 2.0673 20.9374 1.8783 20.2474 2.0783L4.15742 6.7273C3.42942 6.9293 2.91342 7.5063 2.77442 8.2383C2.63242 8.9843 3.12842 9.9323 3.77642 10.3283L8.80742 13.4003C9.32342 13.7163 9.98942 13.6373 10.4164 13.2093L16.1774 7.4483C16.4674 7.1473 16.9474 7.1473 17.2374 7.4483C17.5274 7.7373 17.5274 8.2083 17.2374 8.5083L11.4664 14.2693C11.0384 14.6973 10.9584 15.3613 11.2734 15.8783L14.3474 20.9283C14.7074 21.5273 15.3274 21.8683 16.0074 21.8683C16.0874 21.8683 16.1774 21.8683 16.2574 21.8573C17.0374 21.7583 17.6574 21.2273 17.8874 20.4773L22.6574 4.5083C22.8674 3.8283 22.6774 3.0883 22.1774 2.5783Z" fill="white"/>
<path id="Combined-Shape" opacity="0.4" d="M10.2014 19.1423C10.4934 19.4353 10.4934 19.9103 10.2014 20.2033L8.83539 21.5683C8.68939 21.7153 8.49739 21.7883 8.30539 21.7883C8.11339 21.7883 7.92139 21.7153 7.77539 21.5683C7.48239 21.2753 7.48239 20.8013 7.77539 20.5083L9.14039 19.1423C9.43339 18.8503 9.90839 18.8503 10.2014 19.1423ZM9.41769 15.3543C9.70969 15.6473 9.70969 16.1223 9.41769 16.4153L8.05169 17.7803C7.90569 17.9273 7.71369 18.0003 7.52169 18.0003C7.32969 18.0003 7.13769 17.9273 6.99169 17.7803C6.69869 17.4873 6.69869 17.0133 6.99169 16.7203L8.35669 15.3543C8.64969 15.0623 9.12469 15.0623 9.41769 15.3543ZM5.65649 14.1619C5.94849 14.4549 5.94849 14.9299 5.65649 15.2229L4.29049 16.5879C4.14449 16.7349 3.95249 16.8079 3.76049 16.8079C3.56849 16.8079 3.37649 16.7349 3.23049 16.5879C2.93749 16.2949 2.93749 15.8209 3.23049 15.5279L4.59549 14.1619C4.88849 13.8699 5.36349 13.8699 5.65649 14.1619Z" fill="white"/>
</g>
</g>
</g>
</svg>
