<svg width="26" height="28" viewBox="0 0 26 28" fill="none" xmlns="http://www.w3.org/2000/svg">
<path d="M22.0312 0.1875C20.5642 0.1875 19.375 1.37674 19.375 2.84375V25.1562C19.375 26.6233 20.5642 27.8125 22.0312 27.8125H23.0938C24.5608 27.8125 25.75 26.6233 25.75 25.1562V2.84375C25.75 1.37674 24.5608 0.1875 23.0938 0.1875H22.0312Z" fill="#A685FA"/>
<path d="M9.8125 9.21875C9.8125 7.75174 11.0017 6.5625 12.4688 6.5625H13.5312C14.9983 6.5625 16.1875 7.75174 16.1875 9.21875V25.1562C16.1875 26.6233 14.9983 27.8125 13.5312 27.8125H12.4688C11.0017 27.8125 9.8125 26.6233 9.8125 25.1562V9.21875Z" fill="#A685FA"/>
<path d="M0.25 15.5938C0.25 14.1267 1.43924 12.9375 2.90625 12.9375H3.96875C5.43576 12.9375 6.625 14.1267 6.625 15.5938V25.1562C6.625 26.6233 5.43576 27.8125 3.96875 27.8125H2.90625C1.43924 27.8125 0.25 26.6233 0.25 25.1562V15.5938Z" fill="#A685FA"/>
</svg>
